
<global>
amp_veltrack=0
ampeg_release=0.50
</global>

<group>
group_label=Group_0-45
lpc_hicc1=42
lpc_locc1=0

<region>
hikey=a#2
hivel=127
lokey=a2
loop_end=247255
loop_mode=loop_continuous
loop_start=80374
loop_xfade=20221
lovel=0
lpc=k3b8QtHvnMMfQYdDfIMIw3retkLCoTvCSAsBQih8B8I3FYBBtDjLP6l7BcEdY7ZATvrwwITGQkBYn1jBRE53QRz4FkGaUj7BpmsOQVvACMH9WFJAyq/hP5H5JcHoLetA
lpc_rms=-26.44
pitch_keycenter=a#2
sample=Bassoon_trill_semitone_PP_A#2.opus
</region>

<region>
hikey=a#3
hivel=127
lokey=a3
loop_end=244415
loop_mode=loop_continuous
loop_start=79451
loop_xfade=19989
lovel=0
lpc=hSAoQ/WKzcOrYKVDE2EBw+fPoUKA0j3CkAmrQTgsWsGmHtJAfX2OwGSpc0E3UxnCgtrXQcYYjsBoXY/A9cIUQF07XkEQ47jBMByWQdEs/cCnTNRAxSUowD4CFMEhld1A
lpc_rms=-24.41
pitch_keycenter=a#3
sample=Bassoon_trill_semitone_PP_A#3.opus
</region>

<region>
hivel=127
key=c2
loop_end=261486
loop_mode=loop_continuous
loop_start=85000
loop_xfade=21385
lovel=0
lpc=EHqUQv2eJ8MEjwNDFQinwhYTl0IsUzPCWVvZQRPyaMFMdoVBd2FowaMGj7+TfVS/cS2nP6K7UEDEnu3ARWnIP4KIq0BG6ETAFdB+Pp4XLECbkaFAuE0iwAXzNsGd8O1A
lpc_rms=-27.63
sample=Bassoon_trill_semitone_PP_C2.opus
</region>

<region>
hikey=c3
hivel=127
lokey=b2
loop_end=258804
loop_mode=loop_continuous
loop_start=84128
loop_xfade=21166
lovel=0
lpc=jtoeQ6ogucPh3JFDGO0qw2+/HEPw5YjCzqI0P0Oh6MAZ2BhCiTVywUCCBsGn9jDBRr94wWphB0F7405Bf+71QIJ+fMF/A59BXWJEQCKXRMHoVTxAmve6wW/7mEEbg+6+
lpc_rms=-23.80
pitch_keycenter=c3
sample=Bassoon_trill_semitone_PP_C3.opus
</region>

<region>
hikey=c4
hivel=127
lokey=b3
loop_end=253140
loop_mode=loop_continuous
loop_start=82287
loop_xfade=20702
lovel=0
lpc=0OQEQ04CmMNopm5DsZMJw0U7AENx9W/CyW9fwdRBNEELrOZBRuxowQY/BsG8px/BTxWswMgho0EtqwXAKrEDwNo5w8AeCjRBbyHwQGF9rMEamwtB5d2vwRIOGEJAKIfB
lpc_rms=-25.90
pitch_keycenter=c4
sample=Bassoon_trill_semitone_PP_C4.opus
</region>

<region>
hikey=d2
hivel=127
lokey=c#2
loop_end=249795
loop_mode=loop_continuous
loop_start=81200
loop_xfade=20429
lovel=0
lpc=ryrJQijYSsNYA8xCOhYuwrTvoUJLOw/Cq6GDQWZn1cGH7MdB8MKNwZSNbT+iCN7AOuZQQaDTWsHemElBNYyIwLEx+T935OfA1A+APwXEaUEfCwbB+St5v23SWMC39DNA
lpc_rms=-27.34
pitch_keycenter=d2
sample=Bassoon_trill_semitone_PP_D2.opus
</region>

<region>
hikey=d3
hivel=127
lokey=c#3
loop_end=250935
loop_mode=loop_continuous
loop_start=81571
loop_xfade=20522
lovel=0
lpc=8ggNQ/vvvcMrWK1DN4kCw0eZckLAVLLCtUK0QlqMAcIaCVnBUMJpQcEYu8D8/yzBZJJNQYf9zb/d70vB+8lEv4673UEWwMQ+qwivwQRdqECzvlnA4Ab9QMZ2/8D7yJlA
lpc_rms=-25.57
pitch_keycenter=d3
sample=Bassoon_trill_semitone_PP_D3.opus
</region>

<region>
hikey=d4
hivel=127
lokey=c#4
loop_end=225358
loop_mode=loop_continuous
loop_start=73256
loop_xfade=18430
lovel=0
lpc=+VaSQuVgM8OuUxFD6NJjwqZdDEL435/BkP+MQNJfAsHfBj1BEvt8QKlsLcF0Tz7ARYWSQNM03EDgC1DBghOCQMobNMD27TNBsd1UwCx/rL/R5kjASdOPQMTPwMD6VVVA
lpc_rms=-30.54
pitch_keycenter=d4
sample=Bassoon_trill_semitone_PP_D4.opus
</region>

<region>
hikey=e2
hivel=127
lokey=d#2
loop_end=256907
loop_mode=loop_continuous
loop_start=83512
loop_xfade=21010
lovel=0
lpc=JcjuQtE0dsMEO+xCYaWTwQ1Qh0KIth7CXYUrQMLzbD8y01VADPDKPzFVbMG7yy3ADjYvQcQyUMFtex9BX4A+P0KmPEH2HWvBczLUP4116EDV2SzB6oJHQY2TgMGc+wdB
lpc_rms=-25.83
pitch_keycenter=e2
sample=Bassoon_trill_semitone_PP_E2.opus
</region>

<region>
hikey=e3
hivel=127
lokey=d#3
loop_end=258223
loop_mode=loop_continuous
loop_start=83939
loop_xfade=21118
lovel=0
lpc=R8ZbQ3c5DMQoLN1DAfTYwvetbULD8NTChDzAQvQCn8F6OSTCuvEnQkXWUMIo7K5BuqjWQYasUsEMPAzClDvIQWnFn0ENBoZBxeEQwqBz/cEyiTZCXE2DQPipqsEHpPRA
lpc_rms=-23.95
pitch_keycenter=e3
sample=Bassoon_trill_semitone_PP_E3.opus
</region>

<region>
hikey=e4
hivel=127
lokey=d#4
loop_end=242317
loop_mode=loop_continuous
loop_start=78769
loop_xfade=19817
lovel=0
lpc=1X/LQiZRgMMldlpDCf+uwgI7V0I4OE7CH/8dQoHAesFy3L9Aj7g2wa+n6MBNmHFBoRcNQSJGE8HODZrBeP0tQQySN0GD12A/7su6v9ExXcG6xdNAAg7LQKq6kMDU30o+
lpc_rms=-28.71
pitch_keycenter=e4
sample=Bassoon_trill_semitone_PP_E4.opus
</region>

<region>
hikey=f#2
hivel=127
lokey=f2
loop_end=256511
loop_mode=loop_continuous
loop_start=83383
loop_xfade=20978
lovel=0
lpc=1gHXQtuqWsPnHtxCUawZwptYgEKzYATB97bBwBjYBcED3jdBwm63wKmARMFFjKy/2Y6Qv0T2skDuPdC/Qp9ZPevWkEBMtgA/pG32QIKQCcFxYZVAGLpKwJ50HsGvSwVB
lpc_rms=-26.67
pitch_keycenter=f#2
sample=Bassoon_trill_semitone_PP_F#2.opus
</region>

<region>
hikey=f#3
hivel=127
lokey=f3
loop_end=241709
loop_mode=loop_continuous
loop_start=78571
loop_xfade=19767
lovel=0
lpc=BiMGQ544kcPGmCND6KAZwgfBo0J82nrC6JCTQZOct0C184xAKR/EwMLow8GAa/++QQ2HQVCrt7+AXdbAlX3lP4rWkkDgUdNAmUVwQZ1Ru8HZS6RA6/tswWcCAUEb/YVA
lpc_rms=-25.42
pitch_keycenter=f#3
sample=Bassoon_trill_semitone_PP_F#3.opus
</region>

<region>
hikey=f#4
hivel=127
lokey=f4
loop_end=251354
loop_mode=loop_continuous
loop_start=81707
loop_xfade=20556
lovel=0
lpc=QiO8Qj3OV8PtJRNDQMA3wmjoR0JkSS3CPCIQQh9hqcFBno1ArGf/v3K0msEDGERBg7MyQXRsNcGPvZJAVVT9v9FdWUH+r1zBKSrDP03lFr+vD8jAe4yOQTKxeMEJjrRA
lpc_rms=-30.18
pitch_keycenter=f#4
sample=Bassoon_trill_semitone_PP_F#4.opus
</region>

<region>
hikey=g#2
hivel=127
lokey=g2
loop_end=243863
loop_mode=loop_continuous
loop_start=79271
loop_xfade=19944
lovel=0
lpc=6i3cQgzbgcOn7UhDKo/CwvUzwkJMnJLCXXEfQl423MF5RaxB6sucwPzo+8At6qC/IXNhP57Kv0DPrR3BjTCSQBxZQ78zHrw/LGkNQdvIC8EN/LdANSfJwMxylL8Srz5A
lpc_rms=-24.05
pitch_keycenter=g#2
sample=Bassoon_trill_semitone_PP_G#2.opus
</region>

<region>
hikey=g#3
hivel=127
lokey=g3
loop_end=260126
loop_mode=loop_continuous
loop_start=84558
loop_xfade=21274
lovel=0
lpc=RvbGQuomb8PuLUNDuhbIwk6qwELRC6XCcBZHQjdBt8GF/R1BL2YyPlRFTMFQubdAJYrNP9d/xkAN6+jA6khSwN9uS0Dlxk6//XoWQf6uMsG9YB5BuoIcwQBCTkB2SX4/
lpc_rms=-24.95
pitch_keycenter=g#3
sample=Bassoon_trill_semitone_PP_G#3.opus
</region>

<region>
hikey=D5
hivel=127
lokey=g4
loop_end=240030
loop_mode=loop_continuous
loop_start=78026
loop_xfade=19630
lovel=0
lpc=vbt7QqmREcO7StZCK94lwh6yJ0IvkvPB74soQC8Wx0DDvbm9TSwVQBd6wcDSTLC+i2OPvxtZH0A3/gC/ZKIKv45LBkBcp60/0uFEQFKlnMBU6Iq/rG+2PYj1Q8C5d5BA
lpc_rms=-30.70
pitch_keycenter=G#4
sample=Bassoon_trill_semitone_PP_G#4.opus
</region>
</group>

<group>
group_label=Group_46-90
lpc_hicc1=84
lpc_locc1=43

<region>
hikey=a#2
hivel=127
lokey=a2
loop_end=262228
loop_mode=loop_continuous
loop_start=85241
loop_xfade=21446
lovel=0
lpc=+NHUQqj1jMP1o4NDxb0HwyAevUJZT4PCYDwwQkZhB8JC11JBnLIPwQfG2kAQYRrBH5AsQe2QosD+UDLASckLQYkDh0HMsebBk1BqQSp3ecHKzqlA/3vTQDKEej9EbTDA
lpc_rms=-21.25
pitch_keycenter=a#2
sample=Bassoon_trill_semitone_MF_A#2.opus
</region>

<region>
hikey=a#3
hivel=127
lokey=a3
loop_end=259466
loop_mode=loop_continuous
loop_start=84344
loop_xfade=21220
lovel=0
lpc=hrf/QovYpMMIj4hDioa6wuOJikKnXHDC1s2OQYFYPT/IOrfAzoxAv4/VMEAQcInBNHSEQQ0BjUBliAnBk5P6QD6KNUHLxYPBGuG8wIN53kCuz03A4aiAQH+AjT8AYoW/
lpc_rms=-17.43
pitch_keycenter=a#3
sample=Bassoon_trill_semitone_MF_A#3.opus
</region>

<region>
hivel=127
key=c2
loop_end=243539
loop_mode=loop_continuous
loop_start=79166
loop_xfade=19917
lovel=0
lpc=4ZVNQr727cLlX7FCUpgmwgmPLEIAK+HBI843QXcuwsAXBQdB4d5UwaaGNUCw8YHAWW8oQQl13b+22Ni/w+A+v/UARkD1OIDA5hl9PqtIQ8AI9hlBWILiwAPYGEAMOiq/
lpc_rms=-21.67
sample=Bassoon_trill_semitone_MF_C2.opus
</region>

<region>
hikey=c3
hivel=127
lokey=b2
loop_end=264108
loop_mode=loop_continuous
loop_start=85853
loop_xfade=21599
lovel=0
lpc=B3ACQzfrnsN7OHlDjwPMwi/nlkIFcZDB3WmLwSBOG8Hy5IhBzLG7QGn0WcFPsgbBb5klwTBC2EHNhZ6/r6QxwY4Xh0EJzDHBcxFTQe5a18Fk149BeUo9wQPsGkFKDeq/
lpc_rms=-17.87
pitch_keycenter=c3
sample=Bassoon_trill_semitone_MF_C3.opus
</region>

<region>
hikey=c4
hivel=127
lokey=b3
loop_end=257200
loop_mode=loop_continuous
loop_start=83607
loop_xfade=21034
lovel=0
lpc=G6/mQlJ+isMj4lhDXx+8wkAuuEILt3DCAnz8QKk2YsAZ/8lA5+SSQMciqMDc9gjBRaG0wNyFO0EdrOFAtk78v3VzksAoNkNAgpV2QGNtUcEQDl5ASbxYwK7aiUFhzCHB
lpc_rms=-17.05
pitch_keycenter=c4
sample=Bassoon_trill_semitone_MF_C4.opus
</region>

<region>
hikey=d2
hivel=127
lokey=c#2
loop_end=252206
loop_mode=loop_continuous
loop_start=81984
loop_xfade=20626
lovel=0
lpc=YL3/QgqEksN6oDhDuUNbwiWFu0IkDErCv+UEwEfQgcGUybBB36tTwU3DhcDZ84bALNY2QeF9w8DwfVZBaj6MwJN8778/6as/6eIQwZNs7UDZk+7AjTUYQecvUsClU5++
lpc_rms=-21.88
pitch_keycenter=d2
sample=Bassoon_trill_semitone_MF_D2.opus
</region>

<region>
hikey=d3
hivel=127
lokey=c#3
loop_end=259087
loop_mode=loop_continuous
loop_start=84220
loop_xfade=21189
lovel=0
lpc=tA3pQn6xpcP4fKFDiUTwwqyAOELsE57CTCeLQrFgpMFqkjrBgf+uQfw71sG/mwJBQvW7QKATFEHaYaLBm4dIQc47OMCFqYpBhEfYwQFGN0GoqDHBIWiWQSx7LcEAgh9A
lpc_rms=-20.34
pitch_keycenter=d3
sample=Bassoon_trill_semitone_MF_D3.opus
</region>

<region>
hikey=d4
hivel=127
lokey=c#4
loop_end=261205
loop_mode=loop_continuous
loop_start=84909
loop_xfade=21362
lovel=0
lpc=Uc2QQnXyQ8MsdDVDO3qVwmmOH0IlownCHEiiQb//hMGFAolBX1UMwRJuCcEUS75AdOObQPs2eL66no/ANwLVv+npJ0EyvDDAvuNIwPpmk8AvmfU/NuwLv/Cf30AKm4vA
lpc_rms=-22.39
pitch_keycenter=d4
sample=Bassoon_trill_semitone_MF_D4.opus
</region>

<region>
hikey=e2
hivel=127
lokey=d#2
loop_end=257285
loop_mode=loop_continuous
loop_start=83635
loop_xfade=21041
lovel=0
lpc=NbLtQkC9fMOxLgND4INxwTwpNUICPI3B3bPvwByPgkFccBDCOfEbQmKfBsJVOLJAv4Jvv6boGEFlMGVAKtlhwRjcyUFWjpXB/LIaQSNtcMEAvgNBXBUoQJ6i/sBqE6NA
lpc_rms=-21.20
pitch_keycenter=e2
sample=Bassoon_trill_semitone_MF_E2.opus
</region>

<region>
hikey=e3
hivel=127
lokey=d#3
loop_end=269883
loop_mode=loop_continuous
loop_start=87730
loop_xfade=22072
lovel=0
lpc=9qtIQ0iiC8QcwgBEY6Aww+DMsEIHzAzD9o8JQ0fgicIsWrvBHzCMQVWR2758cHJBc4WUQNQao0EUXkPCXwEvPgsBsUHzZwFCOZBUwompDMEsFA1CrM1/QV2sE8IPbkZB
lpc_rms=-18.32
pitch_keycenter=e3
sample=Bassoon_trill_semitone_MF_E3.opus
</region>

<region>
hikey=e4
hivel=127
lokey=d#4
loop_end=268531
loop_mode=loop_continuous
loop_start=87290
loop_xfade=21961
lovel=0
lpc=ooSkQv2hVsPwyj1D4HOUwp6WZUJYhaLCJQiRQr7NBsI0FddA6EyFwXjcQkGh8rFAHcsmwHY0kED6UHbB5xv2QE5JMUHLdx3B+E5xQJeODMHPWS1BUBFMwYhQTUEtLYnA
lpc_rms=-19.42
pitch_keycenter=e4
sample=Bassoon_trill_semitone_MF_E4.opus
</region>

<region>
hikey=f#2
hivel=127
lokey=f2
loop_end=263417
loop_mode=loop_continuous
loop_start=85628
loop_xfade=21543
lovel=0
lpc=814OQ4fxtsP9cZhDm4oNw3TqFkN8yNbCMbW8QRQF0sHBuitC79X3waQ3R796orFANXKpQCgqR0AQ/j3BTqN6QJq41EDqW59AYNDmwMRHir/HFPjAALfyQP6gsD+m0qG/
lpc_rms=-20.50
pitch_keycenter=f#2
sample=Bassoon_trill_semitone_MF_F#2.opus
</region>

<region>
hikey=f#3
hivel=127
lokey=f3
loop_end=264877
loop_mode=loop_continuous
loop_start=86103
loop_xfade=21662
lovel=0
lpc=YkktQwwR5sPkX8JDlDIRwzHnGEODoB/D3UaAQm4Dg8FfJoRBSUDhwdCtDr8AXhFBSnnAQaF6UsFezmXBFvdMQMUBkUFFZuVATBHkwdSTVsDJoY1B/uquwHOkL0DGua2/
lpc_rms=-16.34
pitch_keycenter=f#3
sample=Bassoon_trill_semitone_MF_F#3.opus
</region>

<region>
hikey=f#4
hivel=127
lokey=f4
loop_end=257195
loop_mode=loop_continuous
loop_start=83605
loop_xfade=21034
lovel=0
lpc=hbSZQgpfQ8NYfB9DFidkwmLsH0J9BvjBJmDFQSVn88EW+c9BRaxtwbQ4gMApzgzARWE7QQ0nTsDu24y/sdUNQDSphEAueVg/4l48wXWaf0DSe5K/OMoWQZoJKcFH9IVA
lpc_rms=-19.36
pitch_keycenter=f#4
sample=Bassoon_trill_semitone_MF_F#4.opus
</region>

<region>
hikey=g#2
hivel=127
lokey=g2
loop_end=261729
loop_mode=loop_continuous
loop_start=85079
loop_xfade=21405
lovel=0
lpc=YYv4Qja1ocNdAJRDW9wmw9f4GUMm5PrC/TqOQstrVcK7ZkFCVRDBwTFJ4sDZh2vABZQVQXTOQkGxfJLBm3aGQW5rb8FG2w1BZ82jQANXL8EjjiJAbOScvxyFLUCmdXq+
lpc_rms=-19.25
pitch_keycenter=g#2
sample=Bassoon_trill_semitone_MF_G#2.opus
</region>

<region>
hikey=g#3
hivel=127
lokey=g3
loop_end=267781
loop_mode=loop_continuous
loop_start=87047
loop_xfade=21900
lovel=0
lpc=NPGoQrdRUcMgETJDySzBwnSvwUK+b6jCAyhrQu2RKcJasN9BWtuJwZF4L8C06OS/8TZxQTTcCcCeOYDAYxzCP8E/zsA9nghBmZN6P0Qs78CvSRxA7Je6v6t8KEACcKm+
lpc_rms=-18.85
pitch_keycenter=g#3
sample=Bassoon_trill_semitone_MF_G#3.opus
</region>

<region>
hikey=D5
hivel=127
lokey=g4
loop_end=259729
loop_mode=loop_continuous
loop_start=84429
loop_xfade=21241
lovel=0
lpc=Vl75QZSnl8KutG9CIUOTwdnuIEH7ZaXAL5D+v8rLTL9T5Dy/ceFqQNUL7j8pjADBQ7fAQEdNDUCxoavAG4SXvyqG4EDMioa/q/2DwFfc5b/JCF9AdYkGQGvQgsBy6e8/
lpc_rms=-22.96
pitch_keycenter=G#4
sample=Bassoon_trill_semitone_MF_G#4.opus
</region>
</group>

<group>
group_label=Group_91-127
lpc_hicc1=127
lpc_locc1=85

<region>
hikey=a#2
hivel=127
lokey=a2
loop_end=253999
loop_mode=loop_continuous
loop_start=82566
loop_xfade=20773
lovel=0
lpc=9SGhQs/WWsO9HmRDNd4Rw8yi0EJi3qDCdZJHQkC6OsG06CDAp5bewCFSd0C3WxjBEQBAQX/+Q0BVcRrBCW0dQcME3cCuLzFAFbVrQLffFMHyLmRATe6aPzoXxT+0zJi/
lpc_rms=-16.47
pitch_keycenter=a#2
sample=Bassoon_trill_semitone_FF_A#2.opus
</region>

<region>
hikey=a#3
hivel=127
lokey=a3
loop_end=258508
loop_mode=loop_continuous
loop_start=84032
loop_xfade=21141
lovel=0
lpc=1iv3QtH9o8M5jqJD/Y08w86X9UJ0d6XCHEQvQpdVPsFmLKNAf4Yuwdp3yT7krhDB6vJoQV32DEAF0DfBjIdCQacoAD6vG0vBbT+XQSA2iMHOXddAxHjywPUvB0EGYJa/
lpc_rms=-14.66
pitch_keycenter=a#3
sample=Bassoon_trill_semitone_FF_A#3.opus
</region>

<region>
hivel=127
key=c2
loop_end=259216
loop_mode=loop_continuous
loop_start=84262
loop_xfade=21199
lovel=0
lpc=HtCFQuI+LMNheBtDCKOuwv9wnkIxhVjC/hOpQVHem8GqyaNBdDA4wd6nDsC6Ooe+Q4UXQDte/EA028/ATsCgQMZLwMD2MoBA7a2HwBtAEcCZ4sVAGOcswFh4RkAOuwzA
lpc_rms=-18.23
sample=Bassoon_trill_semitone_FF_C2.opus
</region>

<region>
hikey=c3
hivel=127
lokey=b2
loop_end=271009
loop_mode=loop_continuous
loop_start=88096
loop_xfade=22164
lovel=0
lpc=UduhQsqBUMNHyzdDMG6swkJYiEIwv0PC2eSGQZ8aasF8CpdB3DlewUTa8EBpRX7BT4uBQeNzZb+Rc0JAn/5fwTN5MEEJ07fAOEGJQeqH18HyuYhBfXdcwfEukUFV7gbB
lpc_rms=-15.90
pitch_keycenter=c3
sample=Bassoon_trill_semitone_FF_C3.opus
</region>

<region>
hikey=c4
hivel=127
lokey=b3
loop_end=256013
loop_mode=loop_continuous
loop_start=83221
loop_xfade=20937
lovel=0
lpc=H4bxQu2Hl8Mxq4VDV5ULw29U9EI/p8HCTgYaQoyXQ8EOKShB4k9eQJx0h8GOnKNA+sPawAMpHkHcHRA/Y9/jP6x2V8AlVeRAy5OFwLUxXsDUxtHAxu5wQICtRUE9zPrA
lpc_rms=-14.63
pitch_keycenter=c4
sample=Bassoon_trill_semitone_FF_C4.opus
</region>

<region>
hikey=d2
hivel=127
lokey=c#2
loop_end=255626
loop_mode=loop_continuous
loop_start=83095
loop_xfade=20906
lovel=0
lpc=lCk7QnUK0ML775RCKKgGwq5K0EGikuvAlF/yQJM9a8G+oZZAtiLLP2WI0L/mKpw//A34vxOhij+GTak/17yEv2qDxT5pg6W/3KIfPvNhKj8X+cY/kx67v/IOhD/3PlC/
lpc_rms=-17.72
pitch_keycenter=d2
sample=Bassoon_trill_semitone_FF_D2.opus
</region>

<region>
hikey=d3
hivel=127
lokey=c#3
loop_end=251281
loop_mode=loop_continuous
loop_start=81683
loop_xfade=20550
lovel=0
lpc=A8ycQifPX8OLQG9Dd/4Iw2zLsEINfLbCLiiWQlTZCMKq4WtBbqNswY7qHkAwbna9KpqMQOUOjUAx2MrAr55vwPvlDUFWsUDAytipP9L0lsCpixBAlo5Wv3qT6T6+aU8/
lpc_rms=-17.03
pitch_keycenter=d3
sample=Bassoon_trill_semitone_FF_D3.opus
</region>

<region>
hikey=d4
hivel=127
lokey=c#4
loop_end=262311
loop_mode=loop_continuous
loop_start=85268
loop_xfade=21452
lovel=0
lpc=kcJQQvGHDsOWbhBD28Glwi9yZ0J0C0nCqnAUQuVRqMGGpv9AGetUv6gXwcB5Rlo/xAShQD69zz7nv90+arO+wCcd50AkhoPAWxvhP7vvO8Bg0+0/HISWwBySH0GMiarA
lpc_rms=-17.18
pitch_keycenter=d4
sample=Bassoon_trill_semitone_FF_D4.opus
</region>

<region>
hikey=e2
hivel=127
lokey=d#2
loop_end=257001
loop_mode=loop_continuous
loop_start=83542
loop_xfade=21018
lovel=0
lpc=+66LQs75JsPdrvhCcAwuwijkOULRxxjCXF8EQVOsqEBkOSPBl+SdQe1n5cE0czk/PzrqQU95vsG5y59B+oLXwbX1AEJM9OHBbO+OQQJqhcFSFm1Bt10HwSkUAEFPH5DA
lpc_rms=-14.34
pitch_keycenter=e2
sample=Bassoon_trill_semitone_FF_E2.opus
</region>

<region>
hikey=e3
hivel=127
lokey=d#3
loop_end=270159
loop_mode=loop_continuous
loop_start=87819
loop_xfade=22094
lovel=0
lpc=NAG/QpivdcOIvVFDOKBownAhOEHSowLCaOoRQknBGcHkwVTBDLAxQVAKYcFwBeFAy5IPQRVgacDg9S7AMON5wIzKG0EJJ4dAlDeIwUtRHcAgaoRBnJwIwCiPf8DaXrA+
lpc_rms=-13.68
pitch_keycenter=e3
sample=Bassoon_trill_semitone_FF_E3.opus
</region>

<region>
hikey=e4
hivel=127
lokey=d#4
loop_end=268445
loop_mode=loop_continuous
loop_start=87262
loop_xfade=21954
lovel=0
lpc=LbWHQuPfM8OXdS9DTbi6wqlejUIMrJ/Cvzt7QgUWUMFpVIrB8/goQCPyTz8cDUhBsxDwwDTytT+V1cDAmG+MQJjuyUDTH7fAOqELwLXNDz/+5DtAI79bwKNjlkBD9gjA
lpc_rms=-13.90
pitch_keycenter=e4
sample=Bassoon_trill_semitone_FF_E4.opus
</region>

<region>
hikey=f#2
hivel=127
lokey=f2
loop_end=266999
loop_mode=loop_continuous
loop_start=86792
loop_xfade=21836
lovel=0
lpc=bSuPQt3/PMNz8zlD+tbuwtG5ykIIupXCrtoTQmqYkcGXdpxBzquWwQhxgr/tpzpAILXOQHevlD8+wI3Aox+UPzgngsBKaylBbKkrwdViIEB8V0o/by3lPzUgur83cJk+
lpc_rms=-16.72
pitch_keycenter=f#2
sample=Bassoon_trill_semitone_FF_F#2.opus
</region>

<region>
hikey=f#3
hivel=127
lokey=f3
loop_end=261182
loop_mode=loop_continuous
loop_start=84901
loop_xfade=21360
lovel=0
lpc=MhnqQnYZnMNtl45D5bAPw9bxCkOH1gTDIACNQlH8DcIRAfJBBtvUwfWUukC4tBPB+2PHQY6+VMEff2JA3/NpvxTViL+BdApBquA0wepgcMAWoeBAAoJewNyy7kDpoYbA
lpc_rms=-14.88
pitch_keycenter=f#3
sample=Bassoon_trill_semitone_FF_F#3.opus
</region>

<region>
hikey=f#4
hivel=127
lokey=f4
loop_end=265384
loop_mode=loop_continuous
loop_start=86267
loop_xfade=21704
lovel=0
lpc=JjtoQjjJFsM67AhDAj2PwitaZUIS4SzCwDD+QVAGAMKabMJBAnh6wVoQgEAoQF7AErDfQBrws77nr5bAI7SlQHZ5qUCC4xDBXKuvv/S1cb4J+QpAL/YCQXm1LMGOLHJA
lpc_rms=-17.38
pitch_keycenter=f#4
sample=Bassoon_trill_semitone_FF_F#4.opus
</region>

<region>
hikey=g#2
hivel=127
lokey=g2
loop_end=257204
loop_mode=loop_continuous
loop_start=83608
loop_xfade=21035
lovel=0
lpc=QyKlQjKJW8OZmltDCJYMwzMP4kK2FrbC7bRzQqGCCcJ+/eFBX+7MwSXpeUCXfwLBbdqsQV1b3cDxZqHAuH5HwDYfyEBXHdk/ZOSuQHc2Z8H2SQhBDIUZwJly/b5BQqc/
lpc_rms=-15.58
pitch_keycenter=g#2
sample=Bassoon_trill_semitone_FF_G#2.opus
</region>

<region>
hikey=g#3
hivel=127
lokey=g3
loop_end=256059
loop_mode=loop_continuous
loop_start=83236
loop_xfade=20941
lovel=0
lpc=K9N7QgC3GcPBhwFDkG6Wwocyn0KdLX/CS50aQiakyMFei4RBMe9ywfUMwUD4mWLBDbjDQd94KcHaHKRA0SPiwMZvTUBCT/S/Tk3eQPoCNsGwNhBBOZP0wCi/5UAZ3yTA
lpc_rms=-15.77
pitch_keycenter=g#3
sample=Bassoon_trill_semitone_FF_G#3.opus
</region>

<region>
hikey=D5
hivel=127
lokey=g4
loop_end=243298
loop_mode=loop_continuous
loop_start=79088
loop_xfade=19897
lovel=0
lpc=6vBEQhUH/cLn6tJCvKP+wcDDoUESz7fB72jCQKL5Qz/nTv49tkW7P3l+WkCOb1PBFZIpQcYcnUBMaIbBe8wSQcZ0QUD6qY5AxGW8wI/MpMBYJWlACTZIwG/f7kB/JmrA
lpc_rms=-16.66
pitch_keycenter=G#4
sample=Bassoon_trill_semitone_FF_G#4.opus
</region>
</group>